<svg xmlns="http://www.w3.org/2000/svg" xmlns:xlink="http://www.w3.org/1999/xlink" width="3000" zoomAndPan="magnify" viewBox="0 0 2250 2250.000011" height="3000" preserveAspectRatio="xMidYMid meet" version="1.0"><defs><clipPath id="ce26de0527"><path d="M 194 376 L 1597 376 L 1597 2067.089844 L 194 2067.089844 Z M 194 376 " clip-rule="nonzero"/></clipPath><clipPath id="f501e53671"><path d="M 373 181.679688 L 1776 181.679688 L 1776 1874 L 373 1874 Z M 373 181.679688 " clip-rule="nonzero"/></clipPath><clipPath id="71a668f787"><path d="M 1437 181.679688 L 1776 181.679688 L 1776 520 L 1437 520 Z M 1437 181.679688 " clip-rule="nonzero"/></clipPath><clipPath id="fc1d5b6944"><path d="M 62.664062 1157 L 1225 1157 L 1225 1630 L 62.664062 1630 Z M 62.664062 1157 " clip-rule="nonzero"/></clipPath><clipPath id="91dac86004"><path d="M 373 181.679688 L 445 181.679688 L 445 1874 L 373 1874 Z M 373 181.679688 " clip-rule="nonzero"/></clipPath><clipPath id="ac42d5b70e"><path d="M 62.664062 1157 L 143 1157 L 143 1630 L 62.664062 1630 Z M 62.664062 1157 " clip-rule="nonzero"/></clipPath></defs><g clip-path="url(#ce26de0527)"><path fill="#006694" d="M 194.53125 376.054688 L 1596.78125 376.054688 L 1596.78125 2067.199219 L 194.53125 2067.199219 Z M 194.53125 376.054688 " fill-opacity="1" fill-rule="evenodd"/></g><g clip-path="url(#f501e53671)"><path fill="#eaf6ff" d="M 373.394531 181.980469 L 1437.925781 181.980469 L 1775.625 519.65625 L 1775.625 1873.128906 L 373.394531 1873.128906 Z M 373.394531 181.980469 " fill-opacity="1" fill-rule="evenodd"/></g><g clip-path="url(#71a668f787)"><path fill="#d3dde6" d="M 1437.925781 181.980469 L 1437.925781 519.65625 L 1775.625 519.65625 Z M 1437.925781 181.980469 " fill-opacity="1" fill-rule="evenodd"/></g><path fill="#d3dde6" d="M 538.347656 400.75 C 537.378906 400.75 536.410156 400.699219 535.445312 400.605469 C 534.480469 400.511719 533.523438 400.367188 532.570312 400.179688 C 531.617188 399.988281 530.679688 399.753906 529.75 399.472656 C 528.824219 399.191406 527.910156 398.867188 527.015625 398.492188 C 526.117188 398.121094 525.242188 397.707031 524.386719 397.25 C 523.53125 396.792969 522.699219 396.296875 521.894531 395.757812 C 521.085938 395.21875 520.308594 394.640625 519.558594 394.027344 C 518.808594 393.410156 518.09375 392.761719 517.40625 392.074219 C 516.71875 391.390625 516.070312 390.671875 515.453125 389.921875 C 514.839844 389.171875 514.261719 388.394531 513.722656 387.585938 C 513.183594 386.78125 512.6875 385.949219 512.230469 385.09375 C 511.773438 384.238281 511.359375 383.363281 510.988281 382.46875 C 510.613281 381.570312 510.289062 380.660156 510.007812 379.730469 C 509.726562 378.800781 509.492188 377.863281 509.300781 376.910156 C 509.113281 375.960938 508.96875 375.003906 508.875 374.035156 C 508.78125 373.070312 508.730469 372.105469 508.730469 371.132812 C 508.730469 370.164062 508.78125 369.195312 508.875 368.230469 C 508.96875 367.265625 509.113281 366.308594 509.300781 365.355469 C 509.492188 364.40625 509.726562 363.464844 510.007812 362.539062 C 510.289062 361.609375 510.613281 360.699219 510.988281 359.800781 C 511.359375 358.90625 511.773438 358.03125 512.230469 357.175781 C 512.6875 356.320312 513.183594 355.488281 513.722656 354.679688 C 514.261719 353.875 514.839844 353.097656 515.453125 352.347656 C 516.070312 351.597656 516.71875 350.878906 517.40625 350.195312 C 518.09375 349.507812 518.808594 348.855469 519.558594 348.242188 C 520.308594 347.625 521.085938 347.050781 521.894531 346.511719 C 522.699219 345.972656 523.53125 345.472656 524.386719 345.015625 C 525.242188 344.558594 526.117188 344.144531 527.015625 343.773438 C 527.910156 343.402344 528.824219 343.078125 529.75 342.796875 C 530.679688 342.511719 531.617188 342.277344 532.570312 342.089844 C 533.523438 341.898438 534.480469 341.757812 535.445312 341.664062 C 536.410156 341.566406 537.378906 341.519531 538.347656 341.519531 L 909.136719 341.519531 C 910.105469 341.519531 911.074219 341.566406 912.039062 341.664062 C 913.003906 341.757812 913.960938 341.898438 914.914062 342.089844 C 915.863281 342.277344 916.804688 342.511719 917.734375 342.796875 C 918.660156 343.078125 919.574219 343.402344 920.46875 343.773438 C 921.367188 344.144531 922.242188 344.558594 923.097656 345.015625 C 923.953125 345.472656 924.78125 345.972656 925.589844 346.511719 C 926.394531 347.050781 927.175781 347.625 927.925781 348.242188 C 928.675781 348.855469 929.390625 349.507812 930.078125 350.195312 C 930.761719 350.878906 931.414062 351.597656 932.03125 352.347656 C 932.644531 353.097656 933.222656 353.875 933.761719 354.679688 C 934.300781 355.488281 934.796875 356.320312 935.253906 357.175781 C 935.710938 358.03125 936.125 358.90625 936.496094 359.800781 C 936.867188 360.699219 937.195312 361.609375 937.476562 362.539062 C 937.757812 363.464844 937.992188 364.40625 938.183594 365.355469 C 938.371094 366.308594 938.515625 367.265625 938.609375 368.230469 C 938.703125 369.195312 938.753906 370.164062 938.753906 371.132812 C 938.753906 372.105469 938.703125 373.070312 938.609375 374.035156 C 938.515625 375.003906 938.371094 375.960938 938.183594 376.910156 C 937.992188 377.863281 937.757812 378.800781 937.476562 379.730469 C 937.195312 380.660156 936.867188 381.570312 936.496094 382.46875 C 936.125 383.363281 935.710938 384.238281 935.253906 385.09375 C 934.796875 385.949219 934.300781 386.78125 933.761719 387.585938 C 933.222656 388.394531 932.644531 389.171875 932.03125 389.921875 C 931.414062 390.671875 930.761719 391.390625 930.078125 392.074219 C 929.390625 392.761719 928.675781 393.410156 927.925781 394.027344 C 927.175781 394.640625 926.394531 395.21875 925.589844 395.757812 C 924.78125 396.296875 923.953125 396.792969 923.097656 397.25 C 922.242188 397.707031 921.367188 398.121094 920.46875 398.492188 C 919.574219 398.867188 918.660156 399.191406 917.734375 399.472656 C 916.804688 399.753906 915.863281 399.988281 914.914062 400.179688 C 913.960938 400.367188 913.003906 400.511719 912.039062 400.605469 C 911.074219 400.699219 910.105469 400.75 909.136719 400.75 Z M 538.347656 928.777344 C 537.378906 928.777344 536.414062 928.730469 535.453125 928.636719 C 534.488281 928.542969 533.53125 928.398438 532.582031 928.210938 C 531.632812 928.023438 530.695312 927.789062 529.769531 927.507812 C 528.84375 927.226562 527.933594 926.898438 527.039062 926.527344 C 526.144531 926.160156 525.273438 925.746094 524.417969 925.289062 C 523.566406 924.832031 522.734375 924.335938 521.929688 923.796875 C 521.125 923.261719 520.351562 922.683594 519.601562 922.070312 C 518.851562 921.457031 518.136719 920.808594 517.453125 920.125 C 516.769531 919.441406 516.121094 918.722656 515.503906 917.976562 C 514.890625 917.226562 514.316406 916.449219 513.777344 915.644531 C 513.238281 914.839844 512.742188 914.011719 512.285156 913.160156 C 511.832031 912.304688 511.417969 911.433594 511.046875 910.539062 C 510.675781 909.644531 510.351562 908.734375 510.070312 907.808594 C 509.789062 906.882812 509.554688 905.945312 509.367188 904.996094 C 509.175781 904.046875 509.035156 903.089844 508.941406 902.125 C 508.84375 901.164062 508.796875 900.199219 508.796875 899.230469 C 508.796875 898.261719 508.84375 897.296875 508.941406 896.332031 C 509.035156 895.371094 509.175781 894.414062 509.367188 893.464844 C 509.554688 892.515625 509.789062 891.578125 510.070312 890.652344 C 510.351562 889.726562 510.675781 888.816406 511.046875 887.921875 C 511.417969 887.027344 511.832031 886.15625 512.285156 885.300781 C 512.742188 884.449219 513.238281 883.617188 513.777344 882.8125 C 514.316406 882.007812 514.890625 881.234375 515.503906 880.484375 C 516.121094 879.738281 516.769531 879.019531 517.453125 878.335938 C 518.136719 877.652344 518.851562 877.003906 519.601562 876.390625 C 520.351562 875.773438 521.125 875.199219 521.929688 874.660156 C 522.734375 874.125 523.566406 873.628906 524.417969 873.171875 C 525.273438 872.714844 526.144531 872.300781 527.039062 871.929688 C 527.933594 871.5625 528.84375 871.234375 529.769531 870.953125 C 530.695312 870.671875 531.632812 870.4375 532.582031 870.25 C 533.53125 870.0625 534.488281 869.917969 535.453125 869.824219 C 536.414062 869.730469 537.378906 869.683594 538.347656 869.683594 L 1437.941406 869.683594 C 1438.910156 869.683594 1439.875 869.730469 1440.839844 869.824219 C 1441.800781 869.917969 1442.757812 870.0625 1443.707031 870.25 C 1444.65625 870.4375 1445.59375 870.671875 1446.519531 870.953125 C 1447.445312 871.234375 1448.355469 871.5625 1449.25 871.929688 C 1450.144531 872.300781 1451.019531 872.714844 1451.871094 873.171875 C 1452.726562 873.628906 1453.554688 874.125 1454.359375 874.660156 C 1455.164062 875.199219 1455.941406 875.773438 1456.6875 876.390625 C 1457.4375 877.003906 1458.152344 877.652344 1458.835938 878.335938 C 1459.523438 879.019531 1460.171875 879.738281 1460.785156 880.484375 C 1461.398438 881.234375 1461.976562 882.007812 1462.511719 882.8125 C 1463.050781 883.617188 1463.546875 884.449219 1464.003906 885.300781 C 1464.460938 886.15625 1464.871094 887.027344 1465.242188 887.921875 C 1465.613281 888.816406 1465.9375 889.726562 1466.21875 890.652344 C 1466.5 891.578125 1466.734375 892.515625 1466.925781 893.464844 C 1467.113281 894.414062 1467.253906 895.371094 1467.351562 896.332031 C 1467.445312 897.296875 1467.492188 898.261719 1467.492188 899.230469 C 1467.492188 900.199219 1467.445312 901.164062 1467.351562 902.125 C 1467.253906 903.089844 1467.113281 904.046875 1466.925781 904.996094 C 1466.734375 905.945312 1466.5 906.882812 1466.21875 907.808594 C 1465.9375 908.734375 1465.613281 909.644531 1465.242188 910.539062 C 1464.871094 911.433594 1464.460938 912.304688 1464.003906 913.160156 C 1463.546875 914.011719 1463.050781 914.839844 1462.511719 915.644531 C 1461.976562 916.449219 1461.398438 917.226562 1460.785156 917.976562 C 1460.171875 918.722656 1459.523438 919.441406 1458.835938 920.125 C 1458.152344 920.808594 1457.4375 921.457031 1456.6875 922.070312 C 1455.941406 922.683594 1455.164062 923.261719 1454.359375 923.796875 C 1453.554688 924.335938 1452.726562 924.832031 1451.871094 925.289062 C 1451.019531 925.746094 1450.144531 926.160156 1449.25 926.527344 C 1448.355469 926.898438 1447.445312 927.226562 1446.519531 927.507812 C 1445.59375 927.789062 1444.65625 928.023438 1443.707031 928.210938 C 1442.757812 928.398438 1441.800781 928.542969 1440.839844 928.636719 C 1439.875 928.730469 1438.910156 928.777344 1437.941406 928.777344 Z M 538.347656 752.808594 C 537.378906 752.808594 536.410156 752.761719 535.445312 752.664062 C 534.480469 752.570312 533.523438 752.429688 532.570312 752.238281 C 531.617188 752.050781 530.679688 751.816406 529.75 751.53125 C 528.824219 751.25 527.910156 750.925781 527.015625 750.554688 C 526.117188 750.183594 525.242188 749.769531 524.386719 749.3125 C 523.53125 748.855469 522.699219 748.355469 521.894531 747.816406 C 521.085938 747.277344 520.308594 746.703125 519.558594 746.085938 C 518.808594 745.472656 518.09375 744.820312 517.40625 744.132812 C 516.71875 743.449219 516.070312 742.730469 515.453125 741.980469 C 514.839844 741.230469 514.261719 740.453125 513.722656 739.648438 C 513.183594 738.839844 512.6875 738.007812 512.230469 737.152344 C 511.773438 736.296875 511.359375 735.421875 510.988281 734.527344 C 510.613281 733.628906 510.289062 732.71875 510.007812 731.789062 C 509.726562 730.863281 509.492188 729.921875 509.300781 728.972656 C 509.113281 728.019531 508.96875 727.0625 508.875 726.097656 C 508.78125 725.132812 508.730469 724.164062 508.730469 723.195312 C 508.730469 722.222656 508.78125 721.257812 508.875 720.292969 C 508.96875 719.324219 509.113281 718.367188 509.300781 717.417969 C 509.492188 716.464844 509.726562 715.527344 510.007812 714.597656 C 510.289062 713.667969 510.613281 712.757812 510.988281 711.859375 C 511.359375 710.964844 511.773438 710.089844 512.230469 709.234375 C 512.6875 708.378906 513.183594 707.546875 513.722656 706.742188 C 514.261719 705.933594 514.839844 705.15625 515.453125 704.40625 C 516.070312 703.65625 516.71875 702.9375 517.40625 702.253906 C 518.09375 701.566406 518.808594 700.917969 519.558594 700.300781 C 520.308594 699.6875 521.085938 699.109375 521.894531 698.570312 C 522.699219 698.03125 523.53125 697.535156 524.386719 697.078125 C 525.242188 696.621094 526.117188 696.207031 527.015625 695.835938 C 527.910156 695.464844 528.824219 695.136719 529.75 694.855469 C 530.679688 694.574219 531.617188 694.339844 532.570312 694.148438 C 533.523438 693.960938 534.480469 693.816406 535.445312 693.722656 C 536.410156 693.628906 537.378906 693.578125 538.347656 693.578125 L 1224.660156 693.578125 C 1225.628906 693.578125 1226.597656 693.628906 1227.5625 693.722656 C 1228.527344 693.816406 1229.484375 693.960938 1230.4375 694.148438 C 1231.390625 694.339844 1232.328125 694.574219 1233.257812 694.855469 C 1234.183594 695.136719 1235.097656 695.464844 1235.992188 695.835938 C 1236.890625 696.207031 1237.765625 696.621094 1238.621094 697.078125 C 1239.476562 697.535156 1240.308594 698.03125 1241.113281 698.570312 C 1241.921875 699.109375 1242.699219 699.6875 1243.449219 700.300781 C 1244.199219 700.917969 1244.914062 701.566406 1245.601562 702.253906 C 1246.289062 702.9375 1246.9375 703.65625 1247.554688 704.40625 C 1248.167969 705.15625 1248.746094 705.933594 1249.285156 706.742188 C 1249.824219 707.546875 1250.320312 708.378906 1250.777344 709.234375 C 1251.234375 710.089844 1251.652344 710.964844 1252.023438 711.859375 C 1252.394531 712.757812 1252.71875 713.667969 1253 714.597656 C 1253.28125 715.527344 1253.519531 716.464844 1253.707031 717.417969 C 1253.894531 718.367188 1254.039062 719.324219 1254.132812 720.292969 C 1254.230469 721.257812 1254.277344 722.222656 1254.277344 723.195312 C 1254.277344 724.164062 1254.230469 725.132812 1254.132812 726.097656 C 1254.039062 727.0625 1253.894531 728.019531 1253.707031 728.972656 C 1253.519531 729.921875 1253.28125 730.863281 1253 731.789062 C 1252.71875 732.71875 1252.394531 733.628906 1252.023438 734.527344 C 1251.648438 735.421875 1251.234375 736.296875 1250.777344 737.152344 C 1250.320312 738.007812 1249.824219 738.839844 1249.285156 739.648438 C 1248.746094 740.453125 1248.167969 741.230469 1247.554688 741.980469 C 1246.9375 742.730469 1246.289062 743.449219 1245.601562 744.132812 C 1244.914062 744.820312 1244.199219 745.472656 1243.449219 746.085938 C 1242.699219 746.703125 1241.921875 747.277344 1241.113281 747.816406 C 1240.308594 748.355469 1239.476562 748.855469 1238.621094 749.3125 C 1237.765625 749.769531 1236.890625 750.183594 1235.992188 750.554688 C 1235.097656 750.925781 1234.183594 751.25 1233.257812 751.53125 C 1232.328125 751.816406 1231.390625 752.050781 1230.4375 752.238281 C 1229.484375 752.429688 1228.527344 752.570312 1227.5625 752.664062 C 1226.597656 752.761719 1225.628906 752.808594 1224.660156 752.808594 Z M 538.347656 576.71875 C 537.378906 576.71875 536.410156 576.671875 535.445312 576.574219 C 534.480469 576.480469 533.523438 576.339844 532.570312 576.148438 C 531.617188 575.960938 530.679688 575.726562 529.75 575.445312 C 528.824219 575.160156 527.910156 574.835938 527.015625 574.464844 C 526.117188 574.09375 525.242188 573.679688 524.386719 573.222656 C 523.53125 572.765625 522.699219 572.265625 521.894531 571.726562 C 521.085938 571.1875 520.308594 570.613281 519.558594 569.996094 C 518.808594 569.382812 518.09375 568.730469 517.40625 568.042969 C 516.71875 567.359375 516.070312 566.640625 515.453125 565.890625 C 514.839844 565.140625 514.261719 564.363281 513.722656 563.558594 C 513.183594 562.75 512.6875 561.917969 512.230469 561.066406 C 511.773438 560.210938 511.359375 559.332031 510.988281 558.4375 C 510.613281 557.542969 510.289062 556.628906 510.007812 555.699219 C 509.726562 554.773438 509.492188 553.832031 509.300781 552.882812 C 509.113281 551.929688 508.96875 550.972656 508.875 550.007812 C 508.78125 549.042969 508.730469 548.074219 508.730469 547.105469 C 508.730469 546.132812 508.78125 545.167969 508.875 544.203125 C 508.96875 543.238281 509.113281 542.277344 509.300781 541.328125 C 509.492188 540.375 509.726562 539.4375 510.007812 538.507812 C 510.289062 537.578125 510.613281 536.667969 510.988281 535.773438 C 511.359375 534.875 511.773438 534 512.230469 533.144531 C 512.6875 532.289062 513.183594 531.457031 513.722656 530.652344 C 514.261719 529.84375 514.839844 529.066406 515.453125 528.316406 C 516.070312 527.566406 516.71875 526.851562 517.40625 526.164062 C 518.09375 525.476562 518.808594 524.828125 519.558594 524.210938 C 520.308594 523.597656 521.085938 523.019531 521.894531 522.480469 C 522.699219 521.941406 523.53125 521.445312 524.386719 520.988281 C 525.242188 520.53125 526.117188 520.117188 527.015625 519.746094 C 527.910156 519.375 528.824219 519.046875 529.75 518.765625 C 530.679688 518.484375 531.617188 518.25 532.570312 518.058594 C 533.523438 517.871094 534.480469 517.726562 535.445312 517.632812 C 536.410156 517.539062 537.378906 517.492188 538.347656 517.492188 L 1224.660156 517.492188 C 1225.628906 517.492188 1226.597656 517.539062 1227.5625 517.632812 C 1228.527344 517.726562 1229.484375 517.871094 1230.4375 518.058594 C 1231.390625 518.25 1232.328125 518.484375 1233.257812 518.765625 C 1234.183594 519.046875 1235.097656 519.375 1235.992188 519.746094 C 1236.890625 520.117188 1237.765625 520.53125 1238.621094 520.988281 C 1239.476562 521.445312 1240.308594 521.941406 1241.113281 522.480469 C 1241.921875 523.019531 1242.699219 523.597656 1243.449219 524.210938 C 1244.199219 524.828125 1244.914062 525.476562 1245.601562 526.164062 C 1246.289062 526.851562 1246.9375 527.566406 1247.554688 528.316406 C 1248.167969 529.066406 1248.746094 529.84375 1249.285156 530.652344 C 1249.824219 531.457031 1250.320312 532.289062 1250.777344 533.144531 C 1251.238281 534 1251.652344 534.875 1252.023438 535.773438 C 1252.394531 536.667969 1252.71875 537.578125 1253 538.507812 C 1253.28125 539.4375 1253.519531 540.375 1253.707031 541.328125 C 1253.894531 542.277344 1254.039062 543.238281 1254.132812 544.203125 C 1254.230469 545.167969 1254.277344 546.132812 1254.277344 547.105469 C 1254.277344 548.074219 1254.230469 549.042969 1254.132812 550.007812 C 1254.039062 550.972656 1253.894531 551.929688 1253.707031 552.882812 C 1253.519531 553.832031 1253.28125 554.773438 1253 555.699219 C 1252.71875 556.628906 1252.394531 557.542969 1252.023438 558.4375 C 1251.652344 559.332031 1251.238281 560.210938 1250.777344 561.066406 C 1250.320312 561.917969 1249.824219 562.75 1249.285156 563.558594 C 1248.746094 564.363281 1248.167969 565.140625 1247.554688 565.890625 C 1246.9375 566.640625 1246.289062 567.359375 1245.601562 568.042969 C 1244.914062 568.730469 1244.199219 569.382812 1243.449219 569.996094 C 1242.699219 570.613281 1241.921875 571.1875 1241.113281 571.726562 C 1240.308594 572.265625 1239.476562 572.765625 1238.621094 573.222656 C 1237.765625 573.679688 1236.890625 574.09375 1235.992188 574.464844 C 1235.097656 574.835938 1234.183594 575.160156 1233.257812 575.445312 C 1232.328125 575.726562 1231.390625 575.960938 1230.4375 576.148438 C 1229.484375 576.339844 1228.527344 576.480469 1227.5625 576.574219 C 1226.597656 576.671875 1225.628906 576.71875 1224.660156 576.71875 Z M 538.347656 576.71875 " fill-opacity="1" fill-rule="nonzero"/><g clip-path="url(#fc1d5b6944)"><path fill="#e6404d" d="M 83.761719 1157.496094 L 1203.5625 1157.496094 C 1204.25 1157.496094 1204.9375 1157.527344 1205.621094 1157.597656 C 1206.308594 1157.664062 1206.988281 1157.765625 1207.664062 1157.898438 C 1208.339844 1158.03125 1209.003906 1158.199219 1209.664062 1158.398438 C 1210.324219 1158.597656 1210.972656 1158.828125 1211.605469 1159.089844 C 1212.242188 1159.355469 1212.867188 1159.648438 1213.472656 1159.972656 C 1214.082031 1160.292969 1214.671875 1160.648438 1215.246094 1161.027344 C 1215.816406 1161.410156 1216.371094 1161.816406 1216.902344 1162.253906 C 1217.4375 1162.6875 1217.949219 1163.148438 1218.4375 1163.632812 C 1218.925781 1164.121094 1219.386719 1164.628906 1219.824219 1165.15625 C 1220.265625 1165.6875 1220.675781 1166.238281 1221.0625 1166.8125 C 1221.445312 1167.382812 1221.800781 1167.96875 1222.128906 1168.574219 C 1222.453125 1169.179688 1222.75 1169.800781 1223.019531 1170.4375 C 1223.285156 1171.070312 1223.519531 1171.71875 1223.722656 1172.375 C 1223.925781 1173.03125 1224.09375 1173.699219 1224.234375 1174.375 C 1224.371094 1175.046875 1224.476562 1175.726562 1224.546875 1176.414062 C 1224.617188 1177.097656 1224.65625 1177.785156 1224.660156 1178.472656 L 1224.660156 1608.8125 C 1224.660156 1609.503906 1224.625 1610.191406 1224.554688 1610.878906 C 1224.488281 1611.566406 1224.382812 1612.25 1224.25 1612.925781 C 1224.113281 1613.601562 1223.945312 1614.269531 1223.746094 1614.933594 C 1223.542969 1615.59375 1223.308594 1616.242188 1223.046875 1616.878906 C 1222.78125 1617.519531 1222.484375 1618.140625 1222.160156 1618.75 C 1221.832031 1619.359375 1221.476562 1619.949219 1221.09375 1620.523438 C 1220.710938 1621.097656 1220.300781 1621.652344 1219.859375 1622.1875 C 1219.421875 1622.71875 1218.960938 1623.230469 1218.472656 1623.71875 C 1217.984375 1624.207031 1217.472656 1624.671875 1216.9375 1625.109375 C 1216.402344 1625.546875 1215.851562 1625.957031 1215.277344 1626.34375 C 1214.703125 1626.726562 1214.109375 1627.082031 1213.5 1627.40625 C 1212.890625 1627.734375 1212.269531 1628.027344 1211.632812 1628.292969 C 1210.992188 1628.558594 1210.34375 1628.789062 1209.683594 1628.992188 C 1209.023438 1629.191406 1208.351562 1629.363281 1207.675781 1629.496094 C 1207 1629.632812 1206.316406 1629.734375 1205.628906 1629.804688 C 1204.941406 1629.871094 1204.253906 1629.90625 1203.5625 1629.90625 L 83.761719 1629.90625 C 83.074219 1629.90625 82.382812 1629.871094 81.695312 1629.804688 C 81.007812 1629.734375 80.328125 1629.632812 79.648438 1629.496094 C 78.972656 1629.363281 78.304688 1629.191406 77.644531 1628.992188 C 76.980469 1628.792969 76.332031 1628.558594 75.695312 1628.292969 C 75.058594 1628.027344 74.433594 1627.734375 73.824219 1627.40625 C 73.214844 1627.082031 72.625 1626.726562 72.050781 1626.34375 C 71.476562 1625.957031 70.921875 1625.546875 70.386719 1625.109375 C 69.855469 1624.671875 69.34375 1624.207031 68.855469 1623.71875 C 68.367188 1623.230469 67.902344 1622.71875 67.464844 1622.1875 C 67.027344 1621.652344 66.617188 1621.097656 66.230469 1620.523438 C 65.847656 1619.949219 65.492188 1619.359375 65.167969 1618.75 C 64.839844 1618.140625 64.546875 1617.519531 64.28125 1616.878906 C 64.015625 1616.242188 63.78125 1615.59375 63.582031 1614.933594 C 63.378906 1614.269531 63.210938 1613.601562 63.078125 1612.925781 C 62.941406 1612.25 62.839844 1611.566406 62.769531 1610.878906 C 62.703125 1610.191406 62.667969 1609.503906 62.664062 1608.8125 L 62.664062 1178.472656 C 62.671875 1177.785156 62.707031 1177.097656 62.777344 1176.414062 C 62.851562 1175.726562 62.953125 1175.046875 63.09375 1174.375 C 63.230469 1173.699219 63.402344 1173.03125 63.605469 1172.375 C 63.808594 1171.71875 64.042969 1171.070312 64.308594 1170.4375 C 64.574219 1169.800781 64.871094 1169.179688 65.199219 1168.574219 C 65.523438 1167.96875 65.878906 1167.382812 66.265625 1166.8125 C 66.648438 1166.238281 67.0625 1165.6875 67.5 1165.160156 C 67.9375 1164.628906 68.402344 1164.121094 68.890625 1163.632812 C 69.378906 1163.148438 69.886719 1162.6875 70.421875 1162.253906 C 70.953125 1161.816406 71.507812 1161.410156 72.082031 1161.027344 C 72.652344 1160.648438 73.246094 1160.292969 73.851562 1159.972656 C 74.460938 1159.648438 75.082031 1159.355469 75.71875 1159.089844 C 76.355469 1158.828125 77.003906 1158.597656 77.660156 1158.398438 C 78.320312 1158.199219 78.988281 1158.03125 79.664062 1157.898438 C 80.335938 1157.765625 81.019531 1157.664062 81.703125 1157.597656 C 82.386719 1157.527344 83.074219 1157.496094 83.761719 1157.496094 Z M 83.761719 1157.496094 " fill-opacity="1" fill-rule="evenodd"/></g><path fill="#eaf6ff" d="M 658.828125 1533.054688 C 658.488281 1533.949219 658.101562 1534.832031 657.675781 1535.691406 C 657.246094 1536.550781 656.777344 1537.390625 656.269531 1538.203125 C 655.757812 1539.019531 655.210938 1539.808594 654.625 1540.566406 C 654.039062 1541.328125 653.417969 1542.0625 652.757812 1542.761719 C 652.101562 1543.460938 651.410156 1544.128906 650.6875 1544.761719 C 649.964844 1545.398438 649.214844 1545.992188 648.433594 1546.554688 C 647.652344 1547.113281 646.847656 1547.636719 646.015625 1548.117188 C 645.183594 1548.597656 644.332031 1549.039062 643.457031 1549.4375 C 642.582031 1549.835938 641.691406 1550.191406 640.78125 1550.5 C 639.871094 1550.8125 638.949219 1551.078125 638.015625 1551.300781 C 637.078125 1551.523438 636.136719 1551.699219 635.183594 1551.828125 C 634.230469 1551.957031 633.273438 1552.039062 632.316406 1552.078125 C 631.355469 1552.113281 630.394531 1552.101562 629.433594 1552.046875 C 628.476562 1551.988281 627.523438 1551.882812 626.574219 1551.734375 C 625.625 1551.582031 624.683594 1551.386719 623.753906 1551.144531 C 622.824219 1550.902344 621.90625 1550.617188 621.003906 1550.285156 C 620.101562 1549.953125 619.21875 1549.582031 618.355469 1549.164062 C 617.488281 1548.746094 616.644531 1548.289062 615.824219 1547.789062 C 615.003906 1547.289062 614.207031 1546.75 613.441406 1546.171875 C 612.671875 1545.59375 611.933594 1544.980469 611.226562 1544.332031 C 610.515625 1543.683594 609.839844 1543.003906 609.199219 1542.285156 C 608.554688 1541.570312 607.949219 1540.828125 607.382812 1540.054688 C 606.8125 1539.28125 606.28125 1538.480469 605.789062 1537.652344 C 605.296875 1536.828125 604.847656 1535.980469 604.4375 1535.109375 C 604.03125 1534.242188 603.664062 1533.351562 603.34375 1532.449219 C 603.019531 1531.542969 602.742188 1530.625 602.511719 1529.691406 C 602.277344 1528.757812 602.089844 1527.816406 601.949219 1526.867188 C 601.808594 1525.917969 601.714844 1524.960938 601.667969 1524 C 601.617188 1523.042969 601.617188 1522.082031 601.664062 1521.121094 C 601.710938 1520.164062 601.800781 1519.207031 601.941406 1518.257812 C 602.082031 1517.304688 602.265625 1516.363281 602.496094 1515.429688 C 602.726562 1514.496094 603.003906 1513.578125 603.324219 1512.671875 L 698.867188 1252.433594 C 699.382812 1251.019531 700.003906 1249.652344 700.730469 1248.332031 C 701.457031 1247.015625 702.277344 1245.757812 703.195312 1244.5625 C 704.113281 1243.371094 705.113281 1242.253906 706.203125 1241.210938 C 707.292969 1240.171875 708.453125 1239.21875 709.6875 1238.355469 C 710.917969 1237.496094 712.210938 1236.730469 713.5625 1236.066406 C 714.914062 1235.398438 716.304688 1234.839844 717.742188 1234.386719 C 719.179688 1233.9375 720.640625 1233.59375 722.128906 1233.367188 C 723.617188 1233.136719 725.113281 1233.023438 726.621094 1233.023438 C 728.125 1233.023438 729.621094 1233.136719 731.109375 1233.367188 C 732.597656 1233.59375 734.058594 1233.9375 735.496094 1234.386719 C 736.933594 1234.839844 738.324219 1235.398438 739.675781 1236.066406 C 741.027344 1236.730469 742.320312 1237.496094 743.550781 1238.355469 C 744.785156 1239.21875 745.945312 1240.171875 747.035156 1241.210938 C 748.125 1242.253906 749.125 1243.371094 750.042969 1244.5625 C 750.960938 1245.757812 751.78125 1247.015625 752.507812 1248.332031 C 753.234375 1249.652344 753.855469 1251.019531 754.371094 1252.433594 L 849.800781 1512.671875 C 850.121094 1513.578125 850.394531 1514.496094 850.628906 1515.429688 C 850.859375 1516.363281 851.042969 1517.304688 851.183594 1518.257812 C 851.320312 1519.207031 851.414062 1520.164062 851.460938 1521.121094 C 851.503906 1522.082031 851.503906 1523.042969 851.457031 1524 C 851.410156 1524.960938 851.316406 1525.917969 851.171875 1526.867188 C 851.03125 1527.816406 850.847656 1528.757812 850.613281 1529.691406 C 850.378906 1530.625 850.101562 1531.542969 849.78125 1532.449219 C 849.457031 1533.351562 849.09375 1534.242188 848.683594 1535.109375 C 848.273438 1535.980469 847.824219 1536.828125 847.332031 1537.652344 C 846.84375 1538.480469 846.3125 1539.28125 845.742188 1540.054688 C 845.171875 1540.828125 844.566406 1541.570312 843.925781 1542.285156 C 843.28125 1543.003906 842.605469 1543.683594 841.898438 1544.332031 C 841.191406 1544.980469 840.453125 1545.59375 839.683594 1546.171875 C 838.914062 1546.75 838.121094 1547.289062 837.300781 1547.789062 C 836.476562 1548.285156 835.636719 1548.746094 834.769531 1549.164062 C 833.902344 1549.582031 833.019531 1549.953125 832.117188 1550.285156 C 831.214844 1550.617188 830.300781 1550.902344 829.371094 1551.144531 C 828.4375 1551.386719 827.5 1551.582031 826.550781 1551.734375 C 825.601562 1551.882812 824.648438 1551.988281 823.6875 1552.046875 C 822.730469 1552.101562 821.769531 1552.113281 820.808594 1552.078125 C 819.847656 1552.039062 818.890625 1551.957031 817.941406 1551.828125 C 816.988281 1551.699219 816.042969 1551.523438 815.109375 1551.300781 C 814.171875 1551.078125 813.25 1550.8125 812.34375 1550.5 C 811.433594 1550.191406 810.542969 1549.835938 809.667969 1549.4375 C 808.792969 1549.039062 807.9375 1548.597656 807.109375 1548.117188 C 806.277344 1547.636719 805.46875 1547.113281 804.6875 1546.554688 C 803.90625 1545.992188 803.15625 1545.398438 802.433594 1544.761719 C 801.710938 1544.128906 801.019531 1543.460938 800.363281 1542.761719 C 799.707031 1542.0625 799.085938 1541.328125 798.496094 1540.566406 C 797.910156 1539.808594 797.363281 1539.019531 796.855469 1538.203125 C 796.34375 1537.390625 795.875 1536.550781 795.449219 1535.691406 C 795.019531 1534.832031 794.636719 1533.949219 794.292969 1533.054688 L 767.679688 1460.664062 L 685.429688 1460.664062 Z M 726.5625 1348.449219 L 707.144531 1401.433594 L 745.984375 1401.433594 Z M 417.507812 1538.566406 C 416.996094 1539.382812 416.441406 1540.175781 415.851562 1540.9375 C 415.257812 1541.703125 414.628906 1542.4375 413.964844 1543.140625 C 413.300781 1543.839844 412.605469 1544.507812 411.875 1545.144531 C 411.144531 1545.777344 410.386719 1546.375 409.597656 1546.933594 C 408.808594 1547.492188 407.996094 1548.011719 407.15625 1548.492188 C 406.316406 1548.972656 405.457031 1549.410156 404.574219 1549.804688 C 403.691406 1550.199219 402.792969 1550.550781 401.875 1550.855469 C 400.957031 1551.164062 400.027344 1551.421875 399.085938 1551.636719 C 398.144531 1551.855469 397.191406 1552.023438 396.234375 1552.144531 C 395.273438 1552.265625 394.3125 1552.339844 393.34375 1552.367188 C 392.378906 1552.394531 391.414062 1552.375 390.449219 1552.304688 C 389.484375 1552.238281 388.527344 1552.125 387.574219 1551.960938 C 386.621094 1551.800781 385.675781 1551.59375 384.742188 1551.335938 C 383.8125 1551.082031 382.894531 1550.785156 381.988281 1550.4375 C 381.085938 1550.09375 380.203125 1549.707031 379.335938 1549.273438 C 378.472656 1548.84375 377.628906 1548.371094 376.8125 1547.855469 C 375.992188 1547.339844 375.203125 1546.789062 374.4375 1546.195312 C 373.671875 1545.605469 372.941406 1544.976562 372.238281 1544.3125 C 371.535156 1543.648438 370.867188 1542.953125 370.234375 1542.222656 C 369.597656 1541.492188 369 1540.734375 368.441406 1539.945312 C 367.882812 1539.15625 367.363281 1538.34375 366.882812 1537.503906 C 366.402344 1536.664062 365.96875 1535.804688 365.570312 1534.921875 C 365.175781 1534.039062 364.828125 1533.136719 364.519531 1532.222656 C 364.214844 1531.304688 363.953125 1530.375 363.738281 1529.433594 C 363.523438 1528.492188 363.355469 1527.539062 363.230469 1526.582031 C 363.109375 1525.621094 363.035156 1524.660156 363.007812 1523.691406 C 362.980469 1522.726562 363 1521.761719 363.070312 1520.796875 C 363.136719 1519.832031 363.25 1518.875 363.414062 1517.921875 C 363.574219 1516.96875 363.785156 1516.023438 364.039062 1515.09375 C 364.292969 1514.160156 364.59375 1513.242188 364.9375 1512.339844 C 365.28125 1511.433594 365.667969 1510.550781 366.101562 1509.6875 C 366.53125 1508.820312 367.003906 1507.980469 367.519531 1507.160156 L 439.449219 1392.679688 L 367.523438 1278.335938 C 367.011719 1277.519531 366.539062 1276.675781 366.109375 1275.8125 C 365.675781 1274.949219 365.289062 1274.0625 364.945312 1273.160156 C 364.601562 1272.257812 364.304688 1271.339844 364.050781 1270.40625 C 363.796875 1269.476562 363.589844 1268.53125 363.425781 1267.582031 C 363.265625 1266.628906 363.152344 1265.667969 363.085938 1264.707031 C 363.019531 1263.742188 363 1262.777344 363.027344 1261.8125 C 363.054688 1260.847656 363.128906 1259.882812 363.25 1258.925781 C 363.375 1257.96875 363.542969 1257.015625 363.757812 1256.074219 C 363.972656 1255.132812 364.234375 1254.203125 364.539062 1253.289062 C 364.847656 1252.371094 365.199219 1251.472656 365.59375 1250.589844 C 365.988281 1249.710938 366.425781 1248.847656 366.90625 1248.011719 C 367.382812 1247.171875 367.902344 1246.359375 368.460938 1245.570312 C 369.023438 1244.78125 369.617188 1244.023438 370.253906 1243.292969 C 370.886719 1242.566406 371.554688 1241.867188 372.257812 1241.207031 C 372.957031 1240.542969 373.691406 1239.914062 374.457031 1239.320312 C 375.21875 1238.730469 376.011719 1238.175781 376.828125 1237.664062 C 377.648438 1237.148438 378.488281 1236.675781 379.351562 1236.246094 C 380.21875 1235.8125 381.101562 1235.425781 382.003906 1235.082031 C 382.90625 1234.738281 383.824219 1234.4375 384.753906 1234.183594 C 385.6875 1233.929688 386.628906 1233.71875 387.582031 1233.558594 C 388.535156 1233.394531 389.492188 1233.28125 390.457031 1233.210938 C 391.421875 1233.144531 392.386719 1233.125 393.351562 1233.152344 C 394.316406 1233.175781 395.28125 1233.25 396.238281 1233.375 C 397.195312 1233.496094 398.148438 1233.664062 399.089844 1233.875 C 400.03125 1234.089844 400.960938 1234.351562 401.878906 1234.65625 C 402.792969 1234.964844 403.691406 1235.3125 404.574219 1235.707031 C 405.457031 1236.101562 406.316406 1236.539062 407.15625 1237.015625 C 407.996094 1237.496094 408.8125 1238.011719 409.597656 1238.570312 C 410.386719 1239.128906 411.148438 1239.726562 411.875 1240.359375 C 412.605469 1240.992188 413.304688 1241.660156 413.96875 1242.363281 C 414.632812 1243.0625 415.261719 1243.796875 415.851562 1244.558594 C 416.445312 1245.320312 417 1246.113281 417.515625 1246.929688 L 474.335938 1337.316406 L 531.28125 1246.929688 C 531.796875 1246.113281 532.347656 1245.324219 532.941406 1244.5625 C 533.53125 1243.800781 534.160156 1243.066406 534.824219 1242.367188 C 535.488281 1241.667969 536.183594 1241 536.914062 1240.367188 C 537.644531 1239.734375 538.402344 1239.140625 539.191406 1238.582031 C 539.976562 1238.027344 540.789062 1237.507812 541.628906 1237.03125 C 542.46875 1236.554688 543.328125 1236.117188 544.207031 1235.722656 C 545.089844 1235.332031 545.988281 1234.980469 546.90625 1234.675781 C 547.820312 1234.371094 548.75 1234.113281 549.691406 1233.898438 C 550.632812 1233.683594 551.582031 1233.519531 552.539062 1233.398438 C 553.496094 1233.277344 554.457031 1233.203125 555.421875 1233.175781 C 556.386719 1233.152344 557.351562 1233.171875 558.3125 1233.242188 C 559.277344 1233.308594 560.234375 1233.425781 561.183594 1233.589844 C 562.136719 1233.75 563.078125 1233.960938 564.007812 1234.214844 C 564.9375 1234.46875 565.855469 1234.769531 566.753906 1235.117188 C 567.65625 1235.460938 568.539062 1235.847656 569.402344 1236.28125 C 570.265625 1236.714844 571.105469 1237.1875 571.921875 1237.699219 C 572.738281 1238.214844 573.527344 1238.769531 574.289062 1239.359375 C 575.050781 1239.953125 575.785156 1240.578125 576.484375 1241.242188 C 577.183594 1241.90625 577.851562 1242.601562 578.484375 1243.332031 C 579.117188 1244.0625 579.710938 1244.820312 580.269531 1245.609375 C 580.824219 1246.394531 581.34375 1247.207031 581.820312 1248.046875 C 582.300781 1248.886719 582.734375 1249.746094 583.128906 1250.625 C 583.519531 1251.507812 583.871094 1252.40625 584.175781 1253.324219 C 584.480469 1254.238281 584.738281 1255.167969 584.953125 1256.105469 C 585.167969 1257.046875 585.335938 1257.996094 585.453125 1258.957031 C 585.574219 1259.914062 585.648438 1260.875 585.675781 1261.839844 C 585.699219 1262.804688 585.679688 1263.765625 585.609375 1264.730469 C 585.542969 1265.691406 585.425781 1266.648438 585.265625 1267.601562 C 585.101562 1268.550781 584.890625 1269.492188 584.636719 1270.421875 C 584.382812 1271.355469 584.082031 1272.269531 583.738281 1273.171875 C 583.390625 1274.074219 583.003906 1274.953125 582.570312 1275.816406 C 582.140625 1276.679688 581.667969 1277.519531 581.152344 1278.335938 L 509.222656 1392.679688 L 581.152344 1507.160156 C 581.660156 1507.976562 582.125 1508.816406 582.550781 1509.679688 C 582.976562 1510.542969 583.359375 1511.421875 583.699219 1512.320312 C 584.039062 1513.222656 584.332031 1514.136719 584.582031 1515.0625 C 584.832031 1515.992188 585.035156 1516.929688 585.195312 1517.878906 C 585.351562 1518.828125 585.464844 1519.78125 585.527344 1520.742188 C 585.59375 1521.699219 585.609375 1522.660156 585.582031 1523.621094 C 585.550781 1524.582031 585.476562 1525.539062 585.351562 1526.496094 C 585.230469 1527.449219 585.058594 1528.394531 584.84375 1529.328125 C 584.628906 1530.265625 584.367188 1531.191406 584.0625 1532.101562 C 583.753906 1533.015625 583.40625 1533.910156 583.011719 1534.785156 C 582.617188 1535.664062 582.179688 1536.519531 581.703125 1537.355469 C 581.226562 1538.1875 580.710938 1538.996094 580.152344 1539.78125 C 579.59375 1540.566406 579 1541.320312 578.371094 1542.046875 C 577.742188 1542.773438 577.074219 1543.464844 576.378906 1544.125 C 575.679688 1544.785156 574.949219 1545.410156 574.191406 1546 C 573.429688 1546.589844 572.644531 1547.140625 571.828125 1547.652344 C 571.015625 1548.164062 570.179688 1548.636719 569.320312 1549.066406 C 568.460938 1549.5 567.582031 1549.886719 566.683594 1550.230469 C 565.785156 1550.574219 564.871094 1550.875 563.945312 1551.128906 C 563.019531 1551.382812 562.082031 1551.59375 561.132812 1551.757812 C 560.1875 1551.921875 559.234375 1552.039062 558.273438 1552.105469 C 557.316406 1552.175781 556.355469 1552.199219 555.394531 1552.175781 C 554.433594 1552.152344 553.472656 1552.082031 552.519531 1551.964844 C 551.566406 1551.847656 550.617188 1551.683594 549.679688 1551.472656 C 548.742188 1551.261719 547.816406 1551.003906 546.902344 1550.703125 C 545.988281 1550.402344 545.09375 1550.058594 544.214844 1549.671875 C 543.335938 1549.28125 542.476562 1548.851562 541.640625 1548.378906 C 540.800781 1547.90625 539.988281 1547.394531 539.203125 1546.839844 C 538.414062 1546.289062 537.65625 1545.699219 536.925781 1545.074219 C 536.199219 1544.445312 535.5 1543.785156 534.835938 1543.089844 C 534.171875 1542.398438 533.542969 1541.671875 532.949219 1540.914062 C 532.355469 1540.160156 531.796875 1539.375 531.28125 1538.566406 L 474.332031 1448.183594 Z M 160.488281 1262.621094 C 160.492188 1261.652344 160.542969 1260.683594 160.636719 1259.71875 C 160.734375 1258.757812 160.878906 1257.796875 161.070312 1256.847656 C 161.257812 1255.898438 161.496094 1254.957031 161.777344 1254.03125 C 162.0625 1253.105469 162.386719 1252.191406 162.757812 1251.296875 C 163.132812 1250.402344 163.546875 1249.527344 164.003906 1248.671875 C 164.460938 1247.816406 164.960938 1246.988281 165.5 1246.183594 C 166.039062 1245.375 166.613281 1244.597656 167.230469 1243.847656 C 167.84375 1243.101562 168.496094 1242.382812 169.179688 1241.699219 C 169.867188 1241.011719 170.585938 1240.363281 171.332031 1239.746094 C 172.082031 1239.132812 172.859375 1238.554688 173.664062 1238.015625 C 174.472656 1237.476562 175.300781 1236.976562 176.15625 1236.519531 C 177.011719 1236.0625 177.886719 1235.648438 178.78125 1235.277344 C 179.675781 1234.90625 180.589844 1234.578125 181.515625 1234.296875 C 182.441406 1234.011719 183.382812 1233.777344 184.332031 1233.585938 C 185.28125 1233.394531 186.242188 1233.25 187.207031 1233.15625 C 188.167969 1233.058594 189.136719 1233.007812 190.105469 1233.007812 C 190.867188 1232.988281 191.628906 1233.027344 192.386719 1233.125 C 193.101562 1233.027344 193.820312 1232.988281 194.539062 1233.007812 L 305.0625 1233.007812 C 306.03125 1233.007812 307 1233.054688 307.964844 1233.148438 C 308.929688 1233.246094 309.890625 1233.386719 310.839844 1233.574219 C 311.792969 1233.765625 312.730469 1234 313.660156 1234.28125 C 314.589844 1234.5625 315.5 1234.890625 316.394531 1235.261719 C 317.292969 1235.632812 318.167969 1236.046875 319.023438 1236.503906 C 319.878906 1236.960938 320.710938 1237.460938 321.515625 1237.996094 C 322.324219 1238.535156 323.101562 1239.113281 323.851562 1239.730469 C 324.601562 1240.34375 325.320312 1240.996094 326.003906 1241.679688 C 326.691406 1242.367188 327.339844 1243.085938 327.957031 1243.835938 C 328.570312 1244.585938 329.148438 1245.363281 329.6875 1246.167969 C 330.226562 1246.976562 330.722656 1247.804688 331.183594 1248.660156 C 331.640625 1249.515625 332.054688 1250.390625 332.425781 1251.289062 C 332.796875 1252.183594 333.121094 1253.097656 333.402344 1254.023438 C 333.683594 1254.953125 333.921875 1255.894531 334.109375 1256.84375 C 334.300781 1257.796875 334.441406 1258.753906 334.535156 1259.71875 C 334.632812 1260.683594 334.679688 1261.652344 334.679688 1262.621094 C 334.679688 1263.589844 334.632812 1264.558594 334.535156 1265.523438 C 334.441406 1266.488281 334.300781 1267.449219 334.109375 1268.398438 C 333.921875 1269.351562 333.683594 1270.289062 333.402344 1271.21875 C 333.121094 1272.144531 332.796875 1273.058594 332.425781 1273.953125 C 332.054688 1274.851562 331.640625 1275.726562 331.183594 1276.582031 C 330.722656 1277.4375 330.226562 1278.265625 329.6875 1279.074219 C 329.148438 1279.878906 328.570312 1280.660156 327.957031 1281.410156 C 327.339844 1282.15625 326.691406 1282.875 326.003906 1283.5625 C 325.320312 1284.246094 324.601562 1284.898438 323.851562 1285.511719 C 323.101562 1286.128906 322.324219 1286.707031 321.515625 1287.246094 C 320.710938 1287.785156 319.878906 1288.28125 319.023438 1288.738281 C 318.167969 1289.195312 317.292969 1289.609375 316.394531 1289.980469 C 315.5 1290.351562 314.585938 1290.679688 313.660156 1290.960938 C 312.730469 1291.242188 311.792969 1291.476562 310.839844 1291.667969 C 309.890625 1291.855469 308.929688 1291.996094 307.964844 1292.09375 C 307 1292.1875 306.03125 1292.234375 305.0625 1292.234375 L 219.710938 1292.234375 L 219.710938 1363.078125 L 305.0625 1363.078125 C 306.03125 1363.082031 306.996094 1363.128906 307.960938 1363.226562 C 308.925781 1363.324219 309.882812 1363.46875 310.832031 1363.660156 C 311.78125 1363.847656 312.71875 1364.085938 313.648438 1364.367188 C 314.574219 1364.652344 315.484375 1364.976562 316.378906 1365.351562 C 317.273438 1365.722656 318.148438 1366.136719 319 1366.59375 C 319.855469 1367.050781 320.683594 1367.550781 321.488281 1368.089844 C 322.292969 1368.628906 323.070312 1369.207031 323.816406 1369.820312 C 324.566406 1370.4375 325.28125 1371.089844 325.96875 1371.773438 C 326.652344 1372.460938 327.300781 1373.175781 327.914062 1373.925781 C 328.527344 1374.675781 329.105469 1375.453125 329.640625 1376.257812 C 330.179688 1377.066406 330.675781 1377.894531 331.132812 1378.75 C 331.589844 1379.605469 332 1380.480469 332.371094 1381.375 C 332.742188 1382.269531 333.066406 1383.179688 333.347656 1384.109375 C 333.628906 1385.035156 333.863281 1385.972656 334.054688 1386.921875 C 334.242188 1387.875 334.382812 1388.832031 334.480469 1389.792969 C 334.574219 1390.757812 334.621094 1391.726562 334.621094 1392.695312 C 334.621094 1393.664062 334.574219 1394.628906 334.480469 1395.59375 C 334.382812 1396.558594 334.242188 1397.515625 334.054688 1398.464844 C 333.863281 1399.414062 333.628906 1400.351562 333.347656 1401.28125 C 333.066406 1402.207031 332.742188 1403.117188 332.371094 1404.011719 C 332 1404.910156 331.589844 1405.785156 331.132812 1406.636719 C 330.675781 1407.492188 330.179688 1408.324219 329.640625 1409.128906 C 329.105469 1409.933594 328.527344 1410.710938 327.914062 1411.460938 C 327.300781 1412.210938 326.652344 1412.929688 325.96875 1413.613281 C 325.28125 1414.300781 324.566406 1414.949219 323.816406 1415.566406 C 323.070312 1416.179688 322.292969 1416.757812 321.488281 1417.296875 C 320.683594 1417.835938 319.855469 1418.335938 319 1418.792969 C 318.148438 1419.25 317.273438 1419.664062 316.378906 1420.035156 C 315.484375 1420.410156 314.574219 1420.738281 313.648438 1421.019531 C 312.71875 1421.300781 311.78125 1421.539062 310.832031 1421.730469 C 309.882812 1421.917969 308.925781 1422.0625 307.960938 1422.160156 C 306.996094 1422.257812 306.03125 1422.304688 305.0625 1422.308594 L 219.710938 1422.308594 L 219.710938 1493.269531 L 305.0625 1493.269531 C 306.03125 1493.269531 307 1493.320312 307.964844 1493.414062 C 308.929688 1493.507812 309.890625 1493.652344 310.839844 1493.839844 C 311.792969 1494.027344 312.730469 1494.265625 313.660156 1494.546875 C 314.589844 1494.828125 315.5 1495.152344 316.394531 1495.523438 C 317.292969 1495.894531 318.167969 1496.308594 319.023438 1496.769531 C 319.878906 1497.226562 320.710938 1497.722656 321.515625 1498.261719 C 322.324219 1498.800781 323.101562 1499.378906 323.851562 1499.992188 C 324.601562 1500.609375 325.320312 1501.257812 326.003906 1501.945312 C 326.691406 1502.628906 327.339844 1503.347656 327.957031 1504.097656 C 328.570312 1504.847656 329.148438 1505.625 329.6875 1506.433594 C 330.226562 1507.238281 330.722656 1508.070312 331.183594 1508.925781 C 331.640625 1509.78125 332.054688 1510.65625 332.425781 1511.550781 C 332.796875 1512.449219 333.121094 1513.359375 333.402344 1514.289062 C 333.683594 1515.214844 333.921875 1516.15625 334.109375 1517.109375 C 334.300781 1518.058594 334.441406 1519.015625 334.535156 1519.984375 C 334.632812 1520.949219 334.679688 1521.914062 334.679688 1522.886719 C 334.679688 1523.855469 334.632812 1524.824219 334.535156 1525.789062 C 334.441406 1526.753906 334.300781 1527.710938 334.109375 1528.664062 C 333.921875 1529.613281 333.683594 1530.554688 333.402344 1531.480469 C 333.121094 1532.410156 332.796875 1533.320312 332.425781 1534.21875 C 332.054688 1535.113281 331.640625 1535.988281 331.183594 1536.84375 C 330.722656 1537.699219 330.226562 1538.53125 329.6875 1539.339844 C 329.148438 1540.144531 328.570312 1540.921875 327.957031 1541.671875 C 327.339844 1542.421875 326.691406 1543.140625 326.003906 1543.824219 C 325.320312 1544.511719 324.601562 1545.160156 323.851562 1545.777344 C 323.101562 1546.394531 322.324219 1546.96875 321.515625 1547.507812 C 320.710938 1548.046875 319.878906 1548.546875 319.023438 1549.003906 C 318.167969 1549.460938 317.292969 1549.875 316.394531 1550.246094 C 315.5 1550.617188 314.585938 1550.941406 313.660156 1551.222656 C 312.730469 1551.503906 311.792969 1551.742188 310.839844 1551.929688 C 309.890625 1552.121094 308.929688 1552.261719 307.964844 1552.355469 C 307 1552.453125 306.03125 1552.5 305.0625 1552.5 L 194.53125 1552.5 C 193.816406 1552.5 193.097656 1552.378906 192.375 1552.378906 C 191.65625 1552.378906 190.816406 1552.5 190.097656 1552.5 C 189.128906 1552.496094 188.160156 1552.449219 187.195312 1552.351562 C 186.230469 1552.253906 185.273438 1552.109375 184.324219 1551.921875 C 183.375 1551.730469 182.433594 1551.492188 181.507812 1551.210938 C 180.578125 1550.929688 179.667969 1550.601562 178.773438 1550.230469 C 177.878906 1549.859375 177.003906 1549.445312 176.148438 1548.984375 C 175.292969 1548.527344 174.464844 1548.03125 173.65625 1547.492188 C 172.851562 1546.953125 172.074219 1546.375 171.324219 1545.757812 C 170.574219 1545.144531 169.859375 1544.496094 169.171875 1543.808594 C 168.488281 1543.125 167.835938 1542.40625 167.222656 1541.65625 C 166.605469 1540.90625 166.03125 1540.128906 165.492188 1539.324219 C 164.953125 1538.519531 164.453125 1537.6875 163.996094 1536.832031 C 163.539062 1535.980469 163.125 1535.105469 162.75 1534.210938 C 162.378906 1533.3125 162.050781 1532.402344 161.769531 1531.476562 C 161.488281 1530.546875 161.25 1529.609375 161.058594 1528.660156 C 160.871094 1527.707031 160.726562 1526.75 160.628906 1525.785156 C 160.53125 1524.820312 160.484375 1523.855469 160.480469 1522.886719 Z M 935.859375 1524.78125 C 935.859375 1525.75 935.8125 1526.71875 935.71875 1527.683594 C 935.621094 1528.648438 935.480469 1529.609375 935.289062 1530.558594 C 935.101562 1531.511719 934.867188 1532.449219 934.585938 1533.378906 C 934.304688 1534.304688 933.976562 1535.21875 933.605469 1536.113281 C 933.234375 1537.011719 932.820312 1537.886719 932.363281 1538.742188 C 931.90625 1539.597656 931.40625 1540.429688 930.867188 1541.234375 C 930.328125 1542.039062 929.753906 1542.820312 929.136719 1543.570312 C 928.523438 1544.316406 927.871094 1545.035156 927.1875 1545.722656 C 926.5 1546.40625 925.78125 1547.058594 925.03125 1547.671875 C 924.28125 1548.289062 923.503906 1548.867188 922.699219 1549.40625 C 921.890625 1549.945312 921.058594 1550.441406 920.203125 1550.898438 C 919.347656 1551.355469 918.472656 1551.769531 917.578125 1552.140625 C 916.679688 1552.511719 915.769531 1552.839844 914.839844 1553.121094 C 913.914062 1553.402344 912.972656 1553.636719 912.023438 1553.828125 C 911.070312 1554.015625 910.113281 1554.160156 909.148438 1554.253906 C 908.179688 1554.347656 907.214844 1554.394531 906.242188 1554.394531 C 905.273438 1554.394531 904.304688 1554.347656 903.339844 1554.253906 C 902.375 1554.160156 901.417969 1554.015625 900.464844 1553.828125 C 899.515625 1553.636719 898.574219 1553.402344 897.648438 1553.121094 C 896.71875 1552.839844 895.804688 1552.511719 894.910156 1552.140625 C 894.015625 1551.769531 893.136719 1551.355469 892.28125 1550.898438 C 891.425781 1550.441406 890.597656 1549.945312 889.789062 1549.40625 C 888.984375 1548.867188 888.207031 1548.289062 887.457031 1547.671875 C 886.707031 1547.058594 885.988281 1546.40625 885.300781 1545.722656 C 884.617188 1545.035156 883.964844 1544.316406 883.351562 1543.570312 C 882.734375 1542.820312 882.15625 1542.039062 881.617188 1541.234375 C 881.078125 1540.429688 880.582031 1539.597656 880.125 1538.742188 C 879.667969 1537.886719 879.253906 1537.011719 878.882812 1536.113281 C 878.511719 1535.21875 878.183594 1534.304688 877.902344 1533.378906 C 877.621094 1532.449219 877.386719 1531.511719 877.195312 1530.558594 C 877.007812 1529.609375 876.867188 1528.648438 876.769531 1527.683594 C 876.675781 1526.71875 876.628906 1525.75 876.628906 1524.78125 L 876.628906 1264.539062 C 876.625 1263.6875 876.664062 1262.835938 876.734375 1261.988281 C 876.808594 1261.140625 876.917969 1260.296875 877.0625 1259.460938 C 877.207031 1258.621094 877.386719 1257.789062 877.605469 1256.964844 C 877.820312 1256.144531 878.074219 1255.332031 878.359375 1254.53125 C 878.648438 1253.730469 878.96875 1252.941406 879.324219 1252.167969 C 879.679688 1251.394531 880.066406 1250.636719 880.488281 1249.898438 C 880.90625 1249.15625 881.359375 1248.4375 881.839844 1247.734375 C 882.320312 1247.03125 882.832031 1246.355469 883.375 1245.695312 C 883.914062 1245.039062 884.484375 1244.40625 885.078125 1243.796875 C 885.675781 1243.191406 886.292969 1242.609375 886.941406 1242.054688 C 887.585938 1241.5 888.253906 1240.972656 888.945312 1240.476562 C 889.636719 1239.976562 890.347656 1239.511719 891.078125 1239.074219 C 891.808594 1238.640625 892.558594 1238.238281 893.324219 1237.863281 C 894.089844 1237.492188 894.871094 1237.15625 895.664062 1236.851562 C 896.460938 1236.546875 897.265625 1236.277344 898.085938 1236.042969 C 898.902344 1235.808594 899.730469 1235.609375 900.566406 1235.449219 C 901.402344 1235.285156 902.242188 1235.15625 903.089844 1235.066406 C 903.933594 1234.976562 904.785156 1234.921875 905.636719 1234.90625 C 906.484375 1234.886719 907.335938 1234.90625 908.183594 1234.960938 C 909.035156 1235.019531 909.878906 1235.109375 910.722656 1235.238281 C 911.5625 1235.367188 912.398438 1235.53125 913.222656 1235.734375 C 914.050781 1235.933594 914.867188 1236.167969 915.675781 1236.441406 C 916.484375 1236.710938 917.277344 1237.015625 918.058594 1237.355469 C 918.835938 1237.695312 919.601562 1238.070312 920.351562 1238.472656 C 921.097656 1238.878906 921.828125 1239.316406 922.539062 1239.785156 C 923.25 1240.253906 923.9375 1240.75 924.605469 1241.277344 C 925.273438 1241.804688 925.917969 1242.363281 926.539062 1242.945312 C 927.160156 1243.527344 927.753906 1244.136719 928.320312 1244.773438 C 928.886719 1245.40625 929.425781 1246.0625 929.9375 1246.746094 C 930.449219 1247.425781 930.929688 1248.128906 931.378906 1248.851562 C 931.828125 1249.570312 932.246094 1250.3125 932.632812 1251.070312 C 933.019531 1251.828125 933.371094 1252.601562 933.691406 1253.390625 L 1001.683594 1390.296875 L 1070.734375 1251.488281 C 1071.464844 1250.003906 1072.316406 1248.597656 1073.289062 1247.257812 C 1074.257812 1245.917969 1075.332031 1244.671875 1076.511719 1243.511719 C 1077.691406 1242.355469 1078.957031 1241.304688 1080.316406 1240.359375 C 1081.671875 1239.414062 1083.097656 1238.585938 1084.589844 1237.882812 C 1086.085938 1237.175781 1087.628906 1236.601562 1089.222656 1236.152344 C 1090.8125 1235.707031 1092.429688 1235.394531 1094.074219 1235.222656 C 1095.71875 1235.046875 1097.363281 1235.011719 1099.015625 1235.113281 C 1100.664062 1235.214844 1102.292969 1235.453125 1103.902344 1235.828125 C 1105.511719 1236.203125 1107.082031 1236.710938 1108.605469 1237.351562 C 1110.128906 1237.988281 1111.589844 1238.75 1112.988281 1239.632812 C 1114.382812 1240.519531 1115.695312 1241.511719 1116.925781 1242.617188 C 1118.15625 1243.722656 1119.285156 1244.921875 1120.3125 1246.214844 C 1121.339844 1247.511719 1122.253906 1248.882812 1123.050781 1250.328125 C 1123.847656 1251.777344 1124.519531 1253.28125 1125.066406 1254.84375 C 1125.609375 1256.402344 1126.023438 1257.996094 1126.300781 1259.628906 C 1126.574219 1261.257812 1126.714844 1262.898438 1126.714844 1264.550781 L 1126.714844 1524.792969 C 1126.714844 1525.761719 1126.667969 1526.726562 1126.574219 1527.691406 C 1126.480469 1528.652344 1126.335938 1529.609375 1126.148438 1530.558594 C 1125.960938 1531.507812 1125.726562 1532.445312 1125.445312 1533.371094 C 1125.164062 1534.296875 1124.835938 1535.207031 1124.46875 1536.101562 C 1124.097656 1536.996094 1123.683594 1537.871094 1123.226562 1538.722656 C 1122.769531 1539.578125 1122.273438 1540.40625 1121.734375 1541.210938 C 1121.199219 1542.015625 1120.621094 1542.792969 1120.007812 1543.539062 C 1119.394531 1544.289062 1118.746094 1545.003906 1118.0625 1545.6875 C 1117.378906 1546.371094 1116.660156 1547.019531 1115.914062 1547.636719 C 1115.164062 1548.25 1114.386719 1548.824219 1113.582031 1549.363281 C 1112.777344 1549.898438 1111.949219 1550.398438 1111.097656 1550.851562 C 1110.242188 1551.308594 1109.367188 1551.722656 1108.472656 1552.09375 C 1107.582031 1552.464844 1106.671875 1552.789062 1105.742188 1553.070312 C 1104.816406 1553.351562 1103.878906 1553.585938 1102.929688 1553.773438 C 1101.980469 1553.964844 1101.027344 1554.105469 1100.0625 1554.199219 C 1099.097656 1554.292969 1098.132812 1554.34375 1097.167969 1554.34375 C 1096.199219 1554.34375 1095.234375 1554.292969 1094.269531 1554.199219 C 1093.304688 1554.105469 1092.351562 1553.964844 1091.402344 1553.773438 C 1090.453125 1553.585938 1089.515625 1553.351562 1088.589844 1553.070312 C 1087.660156 1552.789062 1086.75 1552.464844 1085.855469 1552.09375 C 1084.964844 1551.722656 1084.089844 1551.308594 1083.234375 1550.851562 C 1082.382812 1550.398438 1081.554688 1549.898438 1080.75 1549.363281 C 1079.945312 1548.824219 1079.167969 1548.25 1078.417969 1547.636719 C 1077.671875 1547.019531 1076.953125 1546.371094 1076.269531 1545.6875 C 1075.585938 1545.003906 1074.9375 1544.289062 1074.324219 1543.539062 C 1073.710938 1542.789062 1073.132812 1542.015625 1072.59375 1541.210938 C 1072.058594 1540.40625 1071.5625 1539.578125 1071.105469 1538.722656 C 1070.648438 1537.871094 1070.234375 1536.996094 1069.863281 1536.101562 C 1069.496094 1535.207031 1069.167969 1534.296875 1068.886719 1533.371094 C 1068.605469 1532.445312 1068.371094 1531.507812 1068.183594 1530.558594 C 1067.996094 1529.609375 1067.851562 1528.652344 1067.757812 1527.691406 C 1067.664062 1526.726562 1067.617188 1525.761719 1067.617188 1524.792969 L 1067.617188 1390.527344 L 1028.175781 1469.761719 C 1026.75 1472.683594 1024.886719 1475.296875 1022.585938 1477.597656 C 1020.285156 1479.898438 1017.675781 1481.761719 1014.75 1483.1875 C 1013.882812 1483.613281 1012.996094 1483.996094 1012.089844 1484.335938 C 1011.183594 1484.675781 1010.265625 1484.972656 1009.332031 1485.222656 C 1008.394531 1485.472656 1007.453125 1485.675781 1006.496094 1485.832031 C 1005.542969 1485.992188 1004.582031 1486.101562 1003.617188 1486.164062 C 1002.652344 1486.226562 1001.6875 1486.242188 1000.71875 1486.210938 C 999.753906 1486.179688 998.789062 1486.097656 997.832031 1485.972656 C 996.871094 1485.847656 995.921875 1485.671875 994.980469 1485.453125 C 994.035156 1485.234375 993.109375 1484.96875 992.191406 1484.65625 C 991.277344 1484.347656 990.375 1483.992188 989.496094 1483.59375 C 988.613281 1483.195312 987.753906 1482.753906 986.917969 1482.269531 C 986.078125 1481.785156 985.265625 1481.261719 984.480469 1480.699219 C 983.695312 1480.136719 982.9375 1479.535156 982.210938 1478.898438 C 981.480469 1478.261719 980.789062 1477.589844 980.125 1476.882812 C 979.464844 1476.179688 978.839844 1475.441406 978.25 1474.675781 C 977.660156 1473.90625 977.109375 1473.113281 976.597656 1472.292969 C 976.085938 1471.472656 975.617188 1470.628906 975.1875 1469.761719 L 935.867188 1390.527344 Z M 935.859375 1524.78125 " fill-opacity="1" fill-rule="nonzero"/><path fill="#ff9933" d="M 2103.617188 489.570312 C 2105.460938 490.640625 2107.277344 491.757812 2109.066406 492.917969 C 2110.855469 494.082031 2112.613281 495.285156 2114.34375 496.53125 C 2116.074219 497.777344 2117.769531 499.066406 2119.4375 500.394531 C 2121.105469 501.726562 2122.738281 503.09375 2124.339844 504.503906 C 2125.9375 505.914062 2127.503906 507.363281 2129.03125 508.847656 C 2130.5625 510.335938 2132.054688 511.859375 2133.507812 513.417969 C 2134.960938 514.976562 2136.378906 516.570312 2137.753906 518.199219 C 2139.132812 519.828125 2140.46875 521.488281 2141.761719 523.183594 C 2143.058594 524.875 2144.3125 526.601562 2145.523438 528.355469 C 2146.734375 530.109375 2147.898438 531.894531 2149.023438 533.707031 C 2150.148438 535.519531 2151.226562 537.355469 2152.261719 539.222656 C 2153.292969 541.085938 2154.28125 542.976562 2155.222656 544.886719 C 2156.164062 546.800781 2157.058594 548.734375 2157.90625 550.691406 C 2158.753906 552.648438 2159.550781 554.625 2160.300781 556.621094 C 2161.050781 558.617188 2161.753906 560.632812 2162.40625 562.660156 C 2163.058594 564.691406 2163.660156 566.738281 2164.210938 568.796875 C 2164.761719 570.855469 2165.261719 572.929688 2165.714844 575.011719 C 2166.164062 577.097656 2166.5625 579.191406 2166.910156 581.292969 C 2167.257812 583.398438 2167.554688 585.507812 2167.800781 587.625 C 2168.042969 589.746094 2168.238281 591.867188 2168.378906 593.996094 C 2168.519531 596.125 2168.609375 598.253906 2168.644531 600.386719 C 2168.679688 602.515625 2168.664062 604.648438 2168.597656 606.78125 C 2168.53125 608.910156 2168.410156 611.039062 2168.238281 613.164062 C 2168.066406 615.289062 2167.84375 617.410156 2167.570312 619.523438 C 2167.292969 621.636719 2166.96875 623.746094 2166.589844 625.84375 C 2166.210938 627.941406 2165.78125 630.03125 2165.300781 632.105469 C 2164.820312 634.183594 2164.289062 636.25 2163.707031 638.300781 C 2163.125 640.351562 2162.496094 642.386719 2161.8125 644.410156 C 2161.132812 646.429688 2160.402344 648.433594 2159.625 650.417969 C 2158.84375 652.402344 2158.019531 654.367188 2157.144531 656.3125 C 2156.269531 658.253906 2155.347656 660.175781 2154.378906 662.078125 C 2153.40625 663.976562 2152.394531 665.851562 2151.332031 667.699219 L 1670.96875 1499.609375 L 1445.238281 1629.90625 L 1445.238281 1369.1875 L 1925.609375 537.277344 C 1926.679688 535.433594 1927.796875 533.621094 1928.957031 531.832031 C 1930.113281 530.042969 1931.316406 528.285156 1932.5625 526.554688 C 1933.808594 524.824219 1935.09375 523.128906 1936.421875 521.460938 C 1937.753906 519.792969 1939.121094 518.160156 1940.527344 516.5625 C 1941.9375 514.960938 1943.382812 513.398438 1944.867188 511.871094 C 1946.355469 510.339844 1947.875 508.851562 1949.433594 507.394531 C 1950.992188 505.941406 1952.582031 504.527344 1954.210938 503.148438 C 1955.835938 501.773438 1957.496094 500.4375 1959.191406 499.140625 C 1960.882812 497.847656 1962.605469 496.59375 1964.359375 495.382812 C 1966.113281 494.171875 1967.894531 493.003906 1969.707031 491.882812 C 1971.519531 490.757812 1973.355469 489.679688 1975.21875 488.644531 C 1977.082031 487.609375 1978.96875 486.625 1980.882812 485.683594 C 1982.792969 484.742188 1984.726562 483.847656 1986.683594 483 C 1988.640625 482.152344 1990.617188 481.355469 1992.609375 480.605469 C 1994.605469 479.855469 1996.617188 479.152344 1998.644531 478.5 C 2000.675781 477.847656 2002.71875 477.246094 2004.777344 476.695312 C 2006.835938 476.144531 2008.90625 475.644531 2010.992188 475.191406 C 2013.074219 474.742188 2015.167969 474.34375 2017.269531 473.996094 C 2019.371094 473.648438 2021.480469 473.351562 2023.597656 473.105469 C 2025.714844 472.859375 2027.839844 472.667969 2029.964844 472.527344 C 2032.089844 472.386719 2034.21875 472.296875 2036.351562 472.261719 C 2038.480469 472.222656 2040.613281 472.238281 2042.742188 472.304688 C 2044.875 472.375 2047 472.492188 2049.125 472.664062 C 2051.25 472.835938 2053.367188 473.058594 2055.480469 473.335938 C 2057.59375 473.609375 2059.699219 473.9375 2061.796875 474.316406 C 2063.894531 474.691406 2065.980469 475.121094 2068.058594 475.601562 C 2070.136719 476.082031 2072.199219 476.613281 2074.25 477.195312 C 2076.300781 477.777344 2078.335938 478.40625 2080.355469 479.085938 C 2082.375 479.769531 2084.375 480.5 2086.359375 481.277344 C 2088.34375 482.054688 2090.308594 482.882812 2092.25 483.757812 C 2094.195312 484.632812 2096.113281 485.554688 2098.011719 486.523438 C 2099.910156 487.492188 2101.785156 488.507812 2103.632812 489.566406 Z M 2103.617188 489.570312 " fill-opacity="1" fill-rule="evenodd"/><path fill="#ffbb33" d="M 2103.617188 489.570312 C 2105.460938 490.640625 2107.277344 491.757812 2109.066406 492.917969 C 2110.855469 494.082031 2112.613281 495.285156 2114.34375 496.53125 C 2116.074219 497.777344 2117.769531 499.066406 2119.4375 500.394531 C 2121.105469 501.726562 2122.738281 503.09375 2124.339844 504.503906 C 2125.9375 505.914062 2127.503906 507.363281 2129.03125 508.847656 C 2130.5625 510.335938 2132.054688 511.859375 2133.507812 513.417969 C 2134.960938 514.976562 2136.378906 516.570312 2137.753906 518.199219 C 2139.132812 519.828125 2140.46875 521.488281 2141.761719 523.183594 C 2143.058594 524.875 2144.3125 526.601562 2145.523438 528.355469 C 2146.734375 530.109375 2147.898438 531.894531 2149.023438 533.707031 C 2150.148438 535.519531 2151.226562 537.355469 2152.261719 539.222656 C 2153.292969 541.085938 2154.28125 542.976562 2155.222656 544.886719 C 2156.164062 546.800781 2157.058594 548.734375 2157.90625 550.691406 C 2158.753906 552.648438 2159.550781 554.625 2160.300781 556.621094 C 2161.050781 558.617188 2161.753906 560.632812 2162.40625 562.660156 C 2163.058594 564.691406 2163.660156 566.738281 2164.210938 568.796875 C 2164.761719 570.855469 2165.261719 572.929688 2165.714844 575.011719 C 2166.164062 577.097656 2166.5625 579.191406 2166.910156 581.292969 C 2167.257812 583.398438 2167.554688 585.507812 2167.800781 587.625 C 2168.042969 589.746094 2168.238281 591.867188 2168.378906 593.996094 C 2168.519531 596.125 2168.609375 598.253906 2168.644531 600.386719 C 2168.679688 602.515625 2168.664062 604.648438 2168.597656 606.78125 C 2168.53125 608.910156 2168.410156 611.039062 2168.238281 613.164062 C 2168.066406 615.289062 2167.84375 617.410156 2167.570312 619.523438 C 2167.292969 621.636719 2166.96875 623.746094 2166.589844 625.84375 C 2166.210938 627.941406 2165.78125 630.03125 2165.300781 632.105469 C 2164.820312 634.183594 2164.289062 636.25 2163.707031 638.300781 C 2163.125 640.351562 2162.496094 642.386719 2161.8125 644.410156 C 2161.132812 646.429688 2160.402344 648.433594 2159.625 650.417969 C 2158.84375 652.402344 2158.019531 654.367188 2157.144531 656.3125 C 2156.269531 658.253906 2155.347656 660.175781 2154.378906 662.078125 C 2153.40625 663.976562 2152.394531 665.851562 2151.332031 667.699219 L 1670.96875 1499.609375 L 1445.238281 1629.90625 Z M 2103.617188 489.570312 " fill-opacity="1" fill-rule="evenodd"/><path fill="#4f5c6f" d="M 1670.96875 1499.609375 L 1445.238281 1629.90625 L 1445.238281 1369.1875 Z M 1670.96875 1499.609375 " fill-opacity="1" fill-rule="evenodd"/><path fill="#e65c5c" d="M 2103.617188 489.570312 C 2105.460938 490.640625 2107.277344 491.757812 2109.066406 492.917969 C 2110.855469 494.082031 2112.613281 495.285156 2114.34375 496.53125 C 2116.074219 497.777344 2117.769531 499.066406 2119.4375 500.394531 C 2121.105469 501.726562 2122.738281 503.09375 2124.339844 504.503906 C 2125.9375 505.914062 2127.503906 507.363281 2129.03125 508.847656 C 2130.5625 510.335938 2132.054688 511.859375 2133.507812 513.417969 C 2134.960938 514.976562 2136.378906 516.570312 2137.753906 518.199219 C 2139.132812 519.828125 2140.46875 521.488281 2141.761719 523.183594 C 2143.058594 524.875 2144.3125 526.601562 2145.523438 528.355469 C 2146.734375 530.109375 2147.898438 531.894531 2149.023438 533.707031 C 2150.148438 535.519531 2151.226562 537.355469 2152.261719 539.222656 C 2153.292969 541.085938 2154.28125 542.976562 2155.222656 544.886719 C 2156.164062 546.800781 2157.058594 548.734375 2157.90625 550.691406 C 2158.753906 552.648438 2159.550781 554.625 2160.300781 556.621094 C 2161.050781 558.617188 2161.753906 560.632812 2162.40625 562.660156 C 2163.058594 564.691406 2163.660156 566.738281 2164.210938 568.796875 C 2164.761719 570.855469 2165.261719 572.929688 2165.714844 575.011719 C 2166.164062 577.097656 2166.5625 579.191406 2166.910156 581.292969 C 2167.257812 583.398438 2167.554688 585.507812 2167.800781 587.625 C 2168.042969 589.746094 2168.238281 591.867188 2168.378906 593.996094 C 2168.519531 596.125 2168.609375 598.253906 2168.644531 600.386719 C 2168.679688 602.515625 2168.664062 604.648438 2168.597656 606.78125 C 2168.53125 608.910156 2168.410156 611.039062 2168.238281 613.164062 C 2168.066406 615.289062 2167.84375 617.410156 2167.570312 619.523438 C 2167.292969 621.636719 2166.96875 623.746094 2166.589844 625.84375 C 2166.210938 627.941406 2165.78125 630.03125 2165.300781 632.105469 C 2164.820312 634.183594 2164.289062 636.25 2163.707031 638.300781 C 2163.125 640.351562 2162.496094 642.386719 2161.8125 644.410156 C 2161.132812 646.429688 2160.402344 648.433594 2159.625 650.417969 C 2158.84375 652.402344 2158.019531 654.367188 2157.144531 656.3125 C 2156.269531 658.253906 2155.347656 660.175781 2154.378906 662.078125 C 2153.40625 663.976562 2152.394531 665.851562 2151.332031 667.699219 L 1925.609375 537.277344 C 1926.679688 535.433594 1927.796875 533.621094 1928.957031 531.832031 C 1930.113281 530.042969 1931.316406 528.285156 1932.5625 526.554688 C 1933.808594 524.824219 1935.09375 523.128906 1936.421875 521.460938 C 1937.753906 519.792969 1939.121094 518.160156 1940.527344 516.5625 C 1941.9375 514.960938 1943.382812 513.398438 1944.867188 511.871094 C 1946.355469 510.339844 1947.875 508.851562 1949.433594 507.394531 C 1950.992188 505.941406 1952.582031 504.527344 1954.210938 503.148438 C 1955.835938 501.773438 1957.496094 500.4375 1959.191406 499.140625 C 1960.882812 497.847656 1962.605469 496.59375 1964.359375 495.382812 C 1966.113281 494.171875 1967.894531 493.003906 1969.707031 491.882812 C 1971.519531 490.757812 1973.355469 489.679688 1975.21875 488.644531 C 1977.082031 487.609375 1978.96875 486.625 1980.882812 485.683594 C 1982.792969 484.742188 1984.726562 483.847656 1986.683594 483 C 1988.640625 482.152344 1990.617188 481.355469 1992.609375 480.605469 C 1994.605469 479.855469 1996.617188 479.152344 1998.644531 478.5 C 2000.675781 477.847656 2002.71875 477.246094 2004.777344 476.695312 C 2006.835938 476.144531 2008.90625 475.644531 2010.992188 475.191406 C 2013.074219 474.742188 2015.167969 474.34375 2017.269531 473.996094 C 2019.371094 473.648438 2021.480469 473.351562 2023.597656 473.105469 C 2025.714844 472.859375 2027.839844 472.667969 2029.964844 472.527344 C 2032.089844 472.386719 2034.21875 472.296875 2036.351562 472.261719 C 2038.480469 472.222656 2040.613281 472.238281 2042.742188 472.304688 C 2044.875 472.375 2047 472.492188 2049.125 472.664062 C 2051.25 472.835938 2053.367188 473.058594 2055.480469 473.335938 C 2057.59375 473.609375 2059.699219 473.9375 2061.796875 474.316406 C 2063.894531 474.691406 2065.980469 475.121094 2068.058594 475.601562 C 2070.136719 476.082031 2072.199219 476.613281 2074.25 477.195312 C 2076.300781 477.777344 2078.335938 478.40625 2080.355469 479.085938 C 2082.375 479.769531 2084.375 480.5 2086.359375 481.277344 C 2088.34375 482.054688 2090.308594 482.882812 2092.25 483.757812 C 2094.195312 484.632812 2096.113281 485.554688 2098.011719 486.523438 C 2099.910156 487.492188 2101.785156 488.507812 2103.632812 489.566406 Z M 2103.617188 489.570312 " fill-opacity="1" fill-rule="evenodd"/><path fill="#ff6666" d="M 2103.617188 489.570312 L 2106.496094 491.367188 C 2107.453125 491.847656 2108.417969 492.449219 2109.375 493.046875 C 2110.335938 493.648438 2111.171875 494.246094 2112.132812 494.96875 C 2116.640625 498.027344 2120.917969 501.382812 2124.960938 505.035156 C 2126.636719 506.476562 2128.195312 507.914062 2129.753906 509.351562 C 2131.191406 510.910156 2132.753906 512.46875 2134.191406 514.023438 C 2137.101562 517.140625 2139.816406 520.417969 2142.339844 523.851562 C 2142.941406 524.675781 2143.660156 525.53125 2144.261719 526.375 C 2147.285156 530.667969 2150.082031 535.101562 2152.652344 539.679688 L 2154.089844 542.558594 C 2155.050781 544.355469 2156.007812 546.261719 2156.847656 548.195312 C 2159.027344 552.953125 2160.902344 557.828125 2162.480469 562.816406 C 2162.839844 563.773438 2163.082031 564.738281 2163.441406 565.816406 C 2163.679688 566.773438 2163.917969 567.730469 2164.265625 568.808594 C 2164.742188 570.847656 2165.21875 572.886719 2165.699219 574.925781 C 2165.960938 575.910156 2166.160156 576.910156 2166.300781 577.917969 C 2166.539062 579 2166.664062 579.976562 2166.902344 581.039062 C 2167.019531 582.113281 2167.257812 583.09375 2167.378906 584.15625 C 2167.621094 586.191406 2167.980469 588.230469 2168.097656 590.386719 C 2168.339844 592.441406 2168.460938 594.582031 2168.578125 596.621094 C 2168.699219 598.777344 2168.699219 600.816406 2168.699219 602.972656 L 2168.699219 606.089844 C 2168.699219 607.167969 2168.578125 608.148438 2168.578125 609.207031 C 2168.460938 610.285156 2168.460938 611.367188 2168.339844 612.445312 C 2168.316406 613.488281 2168.234375 614.523438 2168.097656 615.558594 C 2167.980469 616.640625 2167.859375 617.613281 2167.742188 618.675781 C 2167.621094 619.757812 2167.5 620.835938 2167.378906 621.792969 C 2167.140625 622.871094 2167.019531 623.953125 2166.78125 625.03125 C 2166.664062 625.988281 2166.421875 627.085938 2166.300781 628.144531 C 2166.0625 629.226562 2165.820312 630.203125 2165.582031 631.261719 C 2165.34375 632.34375 2165.105469 633.320312 2164.859375 634.378906 C 2164.621094 635.457031 2164.265625 636.4375 2164.039062 637.496094 C 2163.800781 638.574219 2163.441406 639.535156 2163.214844 640.617188 C 2162.859375 641.574219 2162.496094 642.671875 2162.136719 643.609375 C 2161.851562 644.671875 2161.492188 645.714844 2161.058594 646.726562 C 2160.699219 647.804688 2160.339844 648.761719 2159.980469 649.84375 C 2159.621094 650.804688 2159.15625 651.761719 2158.78125 652.839844 C 2158.304688 653.800781 2157.960938 654.894531 2157.460938 655.839844 C 2156.984375 656.796875 2156.503906 657.894531 2156.027344 658.832031 C 2155.542969 659.792969 2155.066406 660.890625 2154.585938 661.832031 C 2154.105469 662.789062 2153.507812 663.746094 2153.027344 664.710938 C 2152.539062 665.75 2151.980469 666.75 2151.347656 667.707031 L 2038.398438 602.492188 Z M 2103.617188 489.570312 " fill-opacity="1" fill-rule="evenodd"/><g clip-path="url(#91dac86004)"><path fill="#d3dde6" d="M 444.363281 1629.90625 L 373.394531 1629.90625 L 373.394531 1873.128906 L 444.363281 1873.128906 Z M 444.363281 1157.496094 L 444.363281 181.980469 L 373.394531 181.980469 L 373.394531 1157.496094 Z M 444.363281 1157.496094 " fill-opacity="1" fill-rule="evenodd"/></g><g clip-path="url(#ac42d5b70e)"><path fill="#cf3a45" d="M 121.046875 1608.8125 L 121.046875 1178.472656 C 121.050781 1177.785156 121.089844 1177.097656 121.160156 1176.414062 C 121.230469 1175.726562 121.335938 1175.046875 121.472656 1174.375 C 121.613281 1173.699219 121.78125 1173.03125 121.984375 1172.375 C 122.1875 1171.71875 122.421875 1171.070312 122.6875 1170.4375 C 122.957031 1169.800781 123.253906 1169.183594 123.578125 1168.574219 C 123.90625 1167.96875 124.261719 1167.382812 124.644531 1166.8125 C 125.03125 1166.238281 125.441406 1165.6875 125.878906 1165.15625 C 126.320312 1164.628906 126.78125 1164.121094 127.269531 1163.632812 C 127.757812 1163.148438 128.269531 1162.6875 128.800781 1162.253906 C 129.335938 1161.816406 129.890625 1161.410156 130.460938 1161.027344 C 131.035156 1160.648438 131.625 1160.292969 132.234375 1159.972656 C 132.839844 1159.648438 133.464844 1159.355469 134.097656 1159.089844 C 134.734375 1158.828125 135.382812 1158.597656 136.042969 1158.398438 C 136.703125 1158.199219 137.367188 1158.03125 138.042969 1157.898438 C 138.71875 1157.765625 139.398438 1157.664062 140.085938 1157.597656 C 140.769531 1157.527344 141.457031 1157.496094 142.144531 1157.496094 L 83.761719 1157.496094 C 83.074219 1157.496094 82.386719 1157.527344 81.703125 1157.597656 C 81.019531 1157.664062 80.335938 1157.765625 79.664062 1157.898438 C 78.988281 1158.03125 78.320312 1158.199219 77.660156 1158.398438 C 77.003906 1158.597656 76.355469 1158.828125 75.71875 1159.089844 C 75.082031 1159.355469 74.460938 1159.648438 73.851562 1159.972656 C 73.246094 1160.292969 72.652344 1160.648438 72.082031 1161.027344 C 71.507812 1161.410156 70.953125 1161.816406 70.421875 1162.253906 C 69.886719 1162.6875 69.378906 1163.148438 68.890625 1163.632812 C 68.402344 1164.121094 67.9375 1164.628906 67.5 1165.160156 C 67.0625 1165.6875 66.648438 1166.238281 66.265625 1166.8125 C 65.878906 1167.382812 65.523438 1167.96875 65.199219 1168.574219 C 64.871094 1169.179688 64.574219 1169.800781 64.308594 1170.4375 C 64.042969 1171.070312 63.808594 1171.71875 63.605469 1172.375 C 63.402344 1173.03125 63.230469 1173.699219 63.09375 1174.375 C 62.953125 1175.046875 62.851562 1175.726562 62.777344 1176.414062 C 62.707031 1177.097656 62.671875 1177.785156 62.664062 1178.472656 L 62.664062 1608.8125 C 62.667969 1609.503906 62.703125 1610.191406 62.769531 1610.878906 C 62.839844 1611.566406 62.941406 1612.25 63.078125 1612.925781 C 63.210938 1613.601562 63.378906 1614.273438 63.582031 1614.933594 C 63.78125 1615.59375 64.015625 1616.242188 64.28125 1616.878906 C 64.546875 1617.519531 64.839844 1618.140625 65.167969 1618.75 C 65.492188 1619.359375 65.847656 1619.949219 66.230469 1620.523438 C 66.617188 1621.097656 67.027344 1621.652344 67.464844 1622.1875 C 67.902344 1622.71875 68.367188 1623.230469 68.855469 1623.71875 C 69.34375 1624.207031 69.855469 1624.671875 70.386719 1625.109375 C 70.921875 1625.546875 71.476562 1625.957031 72.050781 1626.34375 C 72.625 1626.726562 73.214844 1627.082031 73.824219 1627.40625 C 74.433594 1627.734375 75.058594 1628.027344 75.695312 1628.292969 C 76.332031 1628.558594 76.980469 1628.792969 77.644531 1628.992188 C 78.304688 1629.191406 78.972656 1629.363281 79.648438 1629.496094 C 80.328125 1629.632812 81.007812 1629.734375 81.695312 1629.804688 C 82.382812 1629.871094 83.074219 1629.90625 83.761719 1629.90625 L 142.144531 1629.90625 C 141.453125 1629.90625 140.765625 1629.871094 140.078125 1629.804688 C 139.390625 1629.734375 138.707031 1629.632812 138.03125 1629.496094 C 137.351562 1629.363281 136.683594 1629.191406 136.023438 1628.992188 C 135.363281 1628.789062 134.714844 1628.558594 134.074219 1628.292969 C 133.4375 1628.027344 132.816406 1627.734375 132.207031 1627.40625 C 131.597656 1627.082031 131.003906 1626.726562 130.429688 1626.34375 C 129.855469 1625.957031 129.304688 1625.546875 128.769531 1625.109375 C 128.234375 1624.671875 127.722656 1624.207031 127.234375 1623.71875 C 126.746094 1623.230469 126.285156 1622.71875 125.847656 1622.1875 C 125.40625 1621.652344 124.996094 1621.097656 124.613281 1620.523438 C 124.230469 1619.949219 123.875 1619.359375 123.546875 1618.75 C 123.222656 1618.140625 122.925781 1617.519531 122.660156 1616.878906 C 122.398438 1616.242188 122.164062 1615.59375 121.960938 1614.933594 C 121.761719 1614.269531 121.59375 1613.601562 121.457031 1612.925781 C 121.320312 1612.25 121.21875 1611.566406 121.152344 1610.878906 C 121.082031 1610.191406 121.046875 1609.503906 121.046875 1608.8125 Z M 121.046875 1608.8125 " fill-opacity="1" fill-rule="evenodd"/></g></svg>